<svg xmlns="http://www.w3.org/2000/svg" version="1.1" xmlns:xlink="http://www.w3.org/1999/xlink" xmlns:svgjs="http://svgjs.dev/svgjs" width="1500" height="261" viewBox="0 0 1500 261"><g transform="matrix(1,0,0,1,-0.9090909090909918,2.430874854498313)"><svg viewBox="0 0 396 69" data-background-color="#ffffff" preserveAspectRatio="xMidYMid meet" height="261" width="1500" xmlns="http://www.w3.org/2000/svg" xmlns:xlink="http://www.w3.org/1999/xlink"><g id="tight-bounds" transform="matrix(1,0,0,1,0.2400000000000091,0.40020067011749916)"><svg viewBox="0 0 395.52 68.19959865976497" height="68.19959865976497" width="395.52"><g><svg viewBox="0 0 498.07433170066406 85.88306413004638" height="68.19959865976497" width="395.52"><g transform="matrix(1,0,0,1,102.55433170066408,7.632418079179892)"><svg viewBox="0 0 395.52 70.6182279716866" height="70.6182279716866" width="395.52"><g id="textblocktransform"><svg viewBox="0 0 395.52 70.6182279716866" height="70.6182279716866" width="395.52" id="textblock"><g><svg viewBox="0 0 395.52 70.6182279716866" height="70.6182279716866" width="395.52"><g transform="matrix(1,0,0,1,0,0)"><svg width="395.52" viewBox="2.27 -35.16 200.04 35.72" height="70.6182279716866" data-palette-color="#ffa000"><path d="M19.02 0L10.99-26.22 8.25 0 2.27 0 8.25-35.16 17.11-35.16 25.34-8.33 33.67-35.16 42.53-35.16 47.51 0 37.65 0 34.74-25.54 27.88 0 19.02 0ZM82.49-14.16L82.49-14.16Q82.49-11.96 81.91-10.03 81.32-8.11 80.28-6.47 79.25-4.83 77.78-3.53 76.32-2.22 74.57-1.32 72.82-0.42 70.83 0.07 68.85 0.56 66.75 0.56L66.75 0.56Q64.65 0.56 62.67 0.07 60.69-0.42 58.95-1.32 57.2-2.22 55.73-3.53 54.27-4.83 53.23-6.47 52.19-8.11 51.61-10.05 51.02-11.99 51.02-14.16L51.02-14.16Q51.02-16.33 51.61-18.27 52.19-20.21 53.23-21.85 54.27-23.49 55.73-24.79 57.2-26.1 58.95-27 60.69-27.91 62.67-28.39 64.65-28.88 66.75-28.88L66.75-28.88Q68.85-28.88 70.83-28.39 72.82-27.91 74.57-27 76.32-26.1 77.78-24.79 79.25-23.49 80.28-21.85 81.32-20.21 81.91-18.27 82.49-16.33 82.49-14.16ZM74.09-14.16L74.09-14.16Q74.09-15.33 73.96-16.64 73.83-17.94 73.51-19.2 73.19-20.46 72.64-21.62 72.09-22.78 71.29-23.65 70.48-24.51 69.36-25.04 68.23-25.56 66.75-25.56L66.75-25.56Q65.33-25.56 64.23-25.02 63.13-24.49 62.31-23.6 61.5-22.71 60.95-21.53 60.4-20.36 60.06-19.1 59.71-17.85 59.57-16.56 59.42-15.28 59.42-14.16L59.42-14.16Q59.42-13.04 59.57-11.76 59.71-10.47 60.06-9.2 60.4-7.93 60.95-6.77 61.5-5.62 62.31-4.72 63.13-3.83 64.23-3.3 65.33-2.76 66.75-2.76L66.75-2.76Q68.21-2.76 69.33-3.28 70.46-3.81 71.27-4.69 72.09-5.57 72.63-6.71 73.17-7.86 73.5-9.13 73.83-10.4 73.96-11.69 74.09-12.99 74.09-14.16ZM112.74-28.2L101.63 0 94.21 0 83.95-28.2 92.21-28.2 99.73-5.74 107.03-28.2 112.74-28.2ZM122.45-13.38L122.45-13.38Q123.97-13.04 125.48-12.84 126.99-12.65 128.53-12.65L128.53-12.65Q130.14-12.65 131.52-12.95 132.9-13.26 133.92-13.98 134.93-14.7 135.51-15.89 136.1-17.09 136.1-18.87L136.1-18.87Q136.1-20.31 135.71-21.51 135.32-22.71 134.55-23.56 133.78-24.41 132.66-24.89 131.54-25.37 130.05-25.37L130.05-25.37Q128.65-25.37 127.54-24.85 126.43-24.34 125.59-23.47 124.75-22.61 124.15-21.46 123.55-20.31 123.16-19.07 122.77-17.82 122.6-16.55 122.43-15.28 122.43-14.16L122.43-14.16Q122.43-13.96 122.43-13.77 122.43-13.57 122.45-13.38ZM142.79-18.95L142.79-18.95Q142.79-17.21 142.23-15.86 141.67-14.5 140.7-13.48 139.74-12.45 138.47-11.74 137.2-11.04 135.76-10.58 134.32-10.13 132.79-9.94 131.27-9.74 129.83-9.74L129.83-9.74Q128-9.74 126.21-10 124.43-10.25 122.7-10.82L122.7-10.82Q122.97-9.2 123.55-7.75 124.14-6.3 125.11-5.21 126.09-4.13 127.52-3.49 128.95-2.86 130.9-2.86L130.9-2.86Q132.19-2.86 133.37-3.25 134.54-3.64 135.51-4.35 136.49-5.05 137.24-6.03 137.98-7.01 138.44-8.2L138.44-8.2 142.01-6.88Q141.2-4.96 139.8-3.55 138.4-2.15 136.63-1.23 134.86-0.32 132.87 0.12 130.88 0.56 128.92 0.56L128.92 0.56Q125.7 0.56 122.97-0.52 120.23-1.61 118.25-3.56 116.28-5.52 115.15-8.23 114.03-10.94 114.03-14.16L114.03-14.16Q114.03-17.38 115.15-20.09 116.28-22.8 118.25-24.76 120.23-26.71 122.97-27.8 125.7-28.88 128.92-28.88L128.92-28.88Q130.49-28.88 132.12-28.66 133.76-28.44 135.3-27.97 136.83-27.49 138.2-26.73 139.57-25.98 140.58-24.87 141.59-23.75 142.19-22.29 142.79-20.83 142.79-18.95ZM154.73-13.38L154.73-13.38Q156.24-13.04 157.75-12.84 159.27-12.65 160.81-12.65L160.81-12.65Q162.42-12.65 163.8-12.95 165.18-13.26 166.19-13.98 167.2-14.7 167.79-15.89 168.37-17.09 168.37-18.87L168.37-18.87Q168.37-20.31 167.98-21.51 167.59-22.71 166.82-23.56 166.05-24.41 164.93-24.89 163.81-25.37 162.32-25.37L162.32-25.37Q160.93-25.37 159.82-24.85 158.71-24.34 157.86-23.47 157.02-22.61 156.42-21.46 155.82-20.31 155.43-19.07 155.04-17.82 154.87-16.55 154.7-15.28 154.7-14.16L154.7-14.16Q154.7-13.96 154.7-13.77 154.7-13.57 154.73-13.38ZM175.06-18.95L175.06-18.95Q175.06-17.21 174.5-15.86 173.94-14.5 172.98-13.48 172.01-12.45 170.74-11.74 169.47-11.04 168.03-10.58 166.59-10.13 165.07-9.94 163.54-9.74 162.1-9.74L162.1-9.74Q160.27-9.74 158.49-10 156.7-10.25 154.97-10.82L154.97-10.82Q155.24-9.2 155.82-7.75 156.41-6.3 157.39-5.21 158.36-4.13 159.79-3.49 161.22-2.86 163.17-2.86L163.17-2.86Q164.47-2.86 165.64-3.25 166.81-3.64 167.79-4.35 168.76-5.05 169.51-6.03 170.25-7.01 170.72-8.2L170.72-8.2 174.28-6.88Q173.48-4.96 172.07-3.55 170.67-2.15 168.9-1.23 167.13-0.32 165.14 0.12 163.15 0.56 161.2 0.56L161.2 0.56Q157.97 0.56 155.24-0.52 152.5-1.61 150.53-3.56 148.55-5.52 147.43-8.23 146.3-10.94 146.3-14.16L146.3-14.16Q146.3-17.38 147.43-20.09 148.55-22.8 150.53-24.76 152.5-26.71 155.24-27.8 157.97-28.88 161.2-28.88L161.2-28.88Q162.76-28.88 164.39-28.66 166.03-28.44 167.57-27.97 169.11-27.49 170.47-26.73 171.84-25.98 172.85-24.87 173.87-23.75 174.47-22.29 175.06-20.83 175.06-18.95ZM202.31-3.27L202.31 0 178.43 0 178.43-3.27 178.43-3.27 193.2-24.93 178.43-24.93 178.43-28.2 202.31-28.2 202.31-24.93 187.54-3.27 202.31-3.27Z" opacity="1" transform="matrix(1,0,0,1,0,0)" fill="#ffa000" class="wordmark-text-0" data-fill-palette-color="primary" id="text-0"></path></svg></g></svg></g></svg></g></svg></g><g><svg viewBox="0 0 85.88306291402019 85.88306413004638" height="85.88306413004638" width="85.88306291402019"><g><svg xmlns="http://www.w3.org/2000/svg" xmlns:xlink="http://www.w3.org/1999/xlink" version="1.1" x="0" y="0" viewBox="0 -0.0000014159092122756351 100 100.00000141590921" style="enable-background:new 0 0 100 100;" xml:space="preserve" id="icon-0" width="85.88306291402019" height="85.88306413004638" class="icon-icon-0" data-fill-palette-color="accent"><path d="M62.5 50C55.597 50 50 55.597 50 62.5 50 69.409 55.597 75 62.5 75 69.409 75 75 69.409 75 62.5 75 55.597 69.409 50 62.5 50" fill="#ffa000" data-fill-palette-color="accent"></path><path d="M87.5 25L77.222 4.242A6.27 6.27 0 0 0 71.289 0H54.126A6.25 6.25 0 0 0 48.175 4.327L37.512 25H12.5C5.597 25 0 30.597 0 37.5V100H100V37.5C100 30.597 94.409 25 87.5 25M18.75 50C15.295 50 12.5 47.205 12.5 43.75S15.295 37.5 18.75 37.5 25 40.295 25 43.75 22.205 50 18.75 50M62.5 87.5C48.693 87.5 37.5 76.307 37.5 62.5S48.693 37.5 62.5 37.5 87.5 48.693 87.5 62.5 76.307 87.5 62.5 87.5" fill="#ffa000" data-fill-palette-color="accent"></path></svg></g></svg></g></svg></g><defs></defs></svg><rect width="395.52" height="68.19959865976497" fill="none" stroke="none" visibility="hidden"></rect></g></svg></g></svg>